<svg width="19" height="19" viewBox="0 0 19 19" fill="none" xmlns="http://www.w3.org/2000/svg">
<rect width="19" height="19" rx="9.5" fill="#292929"/>
<path fill-rule="evenodd" clip-rule="evenodd" d="M12.0027 7.54318C12.0027 8.23823 11.7266 8.90481 11.2352 9.39628C10.7437 9.88776 10.0771 10.1639 9.38205 10.1639C8.687 10.1639 8.02042 9.88776 7.52894 9.39628C7.03747 8.90481 6.76136 8.23823 6.76136 7.54318C6.76136 6.84813 7.03747 6.18154 7.52894 5.69007C8.02042 5.19859 8.687 4.92249 9.38205 4.92249C10.0771 4.92249 10.7437 5.19859 11.2352 5.69007C11.7266 6.18154 12.0027 6.84813 12.0027 7.54318ZM10.6924 7.54318C10.6924 7.8907 10.5543 8.22399 10.3086 8.46973C10.0629 8.71547 9.72958 8.85352 9.38205 8.85352C9.03452 8.85352 8.70123 8.71547 8.4555 8.46973C8.20976 8.22399 8.07171 7.8907 8.07171 7.54318C8.07171 7.19565 8.20976 6.86236 8.4555 6.61662C8.70123 6.37088 9.03452 6.23283 9.38205 6.23283C9.72958 6.23283 10.0629 6.37088 10.3086 6.61662C10.5543 6.86236 10.6924 7.19565 10.6924 7.54318Z" fill="white"/>
<path fill-rule="evenodd" clip-rule="evenodd" d="M9.38205 2.30176C5.40188 2.30176 2.17516 5.52848 2.17516 9.50865C2.17516 13.4888 5.40188 16.7156 9.38205 16.7156C13.3622 16.7156 16.5889 13.4888 16.5889 9.50865C16.5889 5.52848 13.3622 2.30176 9.38205 2.30176ZM3.4855 9.50865C3.4855 10.878 3.95264 12.1385 4.73557 13.1396C5.28541 12.4176 5.99475 11.8324 6.80816 11.4298C7.62158 11.0273 8.51706 10.8182 9.42464 10.819C10.3205 10.8181 11.2047 11.0218 12.0099 11.4144C12.8151 11.807 13.5201 12.3783 14.0711 13.0846C14.6388 12.34 15.021 11.471 15.1862 10.5495C15.3513 9.62787 15.2946 8.68021 15.0208 7.78489C14.747 6.88956 14.2639 6.07231 13.6115 5.40075C12.9591 4.72919 12.1562 4.22263 11.2692 3.92299C10.3822 3.62334 9.43656 3.53923 8.51058 3.6776C7.5846 3.81598 6.70488 4.17286 5.94421 4.71872C5.18354 5.26459 4.56379 5.98374 4.13624 6.81668C3.70868 7.64962 3.48562 8.57239 3.4855 9.50865ZM9.38205 15.4052C8.02843 15.4072 6.71567 14.9416 5.66591 14.087C6.08845 13.4821 6.65086 12.9882 7.30528 12.6474C7.9597 12.3065 8.68678 12.1288 9.42464 12.1293C10.1533 12.1288 10.8716 12.302 11.5198 12.6348C12.1681 12.9675 12.7276 13.4501 13.1519 14.0424C12.094 14.9248 10.7596 15.4071 9.38205 15.4052Z" fill="white"/>
</svg>
