<svg width="157" height="48" viewBox="0 0 157 48" fill="none" xmlns="http://www.w3.org/2000/svg">
<path d="M1.13029 28.2684V16.6426H3.10022L6.94319 24.3608L10.7862 16.6426H12.7561V28.2684H10.7054V21.3252L7.33072 28.2684H6.55567L3.18095 21.3252V28.2684H1.13029ZM19.0752 28.5106C18.1818 28.5106 17.3933 28.3195 16.7097 27.9374C16.0315 27.5498 15.4987 27.0197 15.1112 26.3469C14.729 25.6687 14.5379 24.8937 14.5379 24.0217C14.5379 23.069 14.7263 22.2402 15.1031 21.5351C15.4798 20.83 15.9992 20.2837 16.6613 19.8962C17.3233 19.5033 18.0849 19.3068 18.9461 19.3068C19.8611 19.3068 20.6388 19.5221 21.2793 19.9527C21.9198 20.3833 22.3934 20.9888 22.7002 21.7692C23.007 22.5497 23.1147 23.4673 23.0232 24.5223H20.8514V23.7149C20.8514 22.8268 20.7088 22.189 20.4235 21.8015C20.1436 21.4086 19.6834 21.2121 19.0429 21.2121C18.2948 21.2121 17.7431 21.4409 17.3879 21.8984C17.038 22.3505 16.8631 23.0206 16.8631 23.9087C16.8631 24.7214 17.038 25.3512 17.3879 25.7979C17.7431 26.2392 18.2625 26.4599 18.9461 26.4599C19.3767 26.4599 19.7453 26.3657 20.0521 26.1773C20.3589 25.989 20.5931 25.7172 20.7545 25.3619L22.9505 25.9916C22.6222 26.7882 22.1028 27.4072 21.3923 27.8486C20.6872 28.2899 19.9149 28.5106 19.0752 28.5106ZM16.1849 24.5223V22.8914H21.9655V24.5223H16.1849ZM35.1051 28.2684V23.1175C35.1051 22.5416 34.9679 22.0948 34.6934 21.7773C34.4243 21.4544 34.0502 21.2929 33.5712 21.2929C33.2644 21.2929 32.998 21.3655 32.7719 21.5109C32.5458 21.6508 32.3682 21.85 32.2391 22.1083C32.1153 22.3613 32.0534 22.6546 32.0534 22.9883L31.133 22.3747C31.133 21.7773 31.2729 21.2498 31.5528 20.7923C31.8381 20.3348 32.2175 19.9796 32.6912 19.7266C33.1702 19.4683 33.7004 19.3391 34.2816 19.3391C35.2774 19.3391 36.0282 19.6351 36.5341 20.2272C37.0455 20.8139 37.3011 21.5835 37.3011 22.5362V28.2684H35.1051ZM24.5935 28.2684V19.549H26.5311V22.4393H26.8056V28.2684H24.5935ZM29.8574 28.2684V23.1175C29.8574 22.5416 29.7201 22.0948 29.4456 21.7773C29.1765 21.4544 28.8024 21.2929 28.3234 21.2929C27.8659 21.2929 27.4972 21.4517 27.2173 21.7692C26.9428 22.0814 26.8056 22.4878 26.8056 22.9883L25.8852 22.3424C25.8852 21.7719 26.0279 21.2606 26.3131 20.8085C26.5984 20.3564 26.9805 19.9984 27.4596 19.7347C27.944 19.471 28.4849 19.3391 29.0823 19.3391C29.7659 19.3391 30.3256 19.4844 30.7616 19.7751C31.203 20.0657 31.5286 20.4532 31.7385 20.9376C31.9484 21.4221 32.0534 21.9549 32.0534 22.5362V28.2684H29.8574ZM43.1665 28.5106C42.2892 28.5106 41.5195 28.3141 40.8575 27.9212C40.1955 27.5283 39.6788 26.9874 39.3074 26.2984C38.9414 25.6041 38.7584 24.8075 38.7584 23.9087C38.7584 22.9991 38.9468 22.1998 39.3235 21.5109C39.7003 20.8165 40.2197 20.2756 40.8817 19.8881C41.5437 19.5006 42.3053 19.3068 43.1665 19.3068C44.0438 19.3068 44.8135 19.5033 45.4755 19.8962C46.1429 20.2891 46.6623 20.8327 47.0337 21.527C47.4051 22.216 47.5908 23.0098 47.5908 23.9087C47.5908 24.8129 47.4024 25.6122 47.0256 26.3065C46.6543 26.9955 46.1349 27.5364 45.4675 27.9293C44.8054 28.3168 44.0384 28.5106 43.1665 28.5106ZM43.1665 26.4599C43.8716 26.4599 44.3964 26.2231 44.7408 25.7494C45.0907 25.2704 45.2656 24.6568 45.2656 23.9087C45.2656 23.1336 45.088 22.5147 44.7328 22.0518C44.3829 21.5889 43.8608 21.3575 43.1665 21.3575C42.6875 21.3575 42.2946 21.4651 41.9878 21.6804C41.681 21.8957 41.4522 22.1944 41.3015 22.5766C41.1562 22.9587 41.0836 23.4028 41.0836 23.9087C41.0836 24.6891 41.2585 25.3108 41.6083 25.7737C41.9636 26.2312 42.483 26.4599 43.1665 26.4599ZM49.3662 28.2684V19.549H51.3038V21.6804L51.0939 21.4059C51.2069 21.1045 51.3576 20.83 51.546 20.5824C51.7344 20.3348 51.9658 20.1303 52.2403 19.9688C52.4503 19.8397 52.679 19.7401 52.9266 19.6701C53.1742 19.5948 53.4298 19.549 53.6936 19.5329C53.9573 19.5113 54.221 19.5167 54.4848 19.549V21.5997C54.2426 21.5243 53.96 21.5001 53.6371 21.527C53.3195 21.5485 53.0315 21.6212 52.7732 21.745C52.5148 21.8634 52.2969 22.0222 52.1192 22.2213C51.9416 22.4151 51.8071 22.6465 51.7156 22.9157C51.6241 23.1794 51.5783 23.4781 51.5783 23.8118V28.2684H49.3662ZM56.182 18.338V16.4004H58.378V18.338H56.182ZM56.182 28.2684V19.549H58.378V28.2684H56.182ZM64.8513 28.5106C63.9578 28.5106 63.1693 28.3195 62.4857 27.9374C61.8075 27.5498 61.2747 27.0197 60.8872 26.3469C60.505 25.6687 60.314 24.8937 60.314 24.0217C60.314 23.069 60.5023 22.2402 60.8791 21.5351C61.2559 20.83 61.7753 20.2837 62.4373 19.8962C63.0993 19.5033 63.8609 19.3068 64.7221 19.3068C65.6371 19.3068 66.4148 19.5221 67.0553 19.9527C67.6958 20.3833 68.1695 20.9888 68.4762 21.7692C68.783 22.5497 68.8907 23.4673 68.7992 24.5223H66.6274V23.7149C66.6274 22.8268 66.4848 22.189 66.1995 21.8015C65.9196 21.4086 65.4595 21.2121 64.819 21.2121C64.0708 21.2121 63.5191 21.4409 63.1639 21.8984C62.814 22.3505 62.6391 23.0206 62.6391 23.9087C62.6391 24.7214 62.814 25.3512 63.1639 25.7979C63.5191 26.2392 64.0385 26.4599 64.7221 26.4599C65.1527 26.4599 65.5213 26.3657 65.8281 26.1773C66.1349 25.989 66.3691 25.7172 66.5305 25.3619L68.7265 25.9916C68.3982 26.7882 67.8788 27.4072 67.1683 27.8486C66.4633 28.2899 65.6909 28.5106 64.8513 28.5106ZM61.9609 24.5223V22.8914H67.7416V24.5223H61.9609ZM74.0292 28.5106C72.9312 28.5106 72.0431 28.263 71.3649 27.7678C70.6921 27.2673 70.2831 26.5622 70.1377 25.6526L72.3822 25.3135C72.4737 25.7225 72.6755 26.0428 72.9877 26.2742C73.3052 26.5057 73.7062 26.6214 74.1906 26.6214C74.5889 26.6214 74.8957 26.546 75.111 26.3953C75.3263 26.2392 75.4339 26.0239 75.4339 25.7494C75.4339 25.5772 75.3909 25.44 75.3048 25.3377C75.2186 25.2301 75.0249 25.1251 74.7235 25.0228C74.4274 24.9206 73.9646 24.786 73.3348 24.6192C72.6244 24.4362 72.0565 24.2316 71.6313 24.0056C71.2061 23.7795 70.8993 23.5104 70.711 23.1982C70.5226 22.8807 70.4284 22.4985 70.4284 22.0518C70.4284 21.492 70.571 21.0076 70.8563 20.5986C71.1415 20.1841 71.5425 19.8666 72.0592 19.6459C72.5813 19.4198 73.1949 19.3068 73.9 19.3068C74.5835 19.3068 75.189 19.4118 75.7165 19.6217C76.244 19.8316 76.6692 20.1303 76.9921 20.5178C77.3204 20.9054 77.5223 21.3629 77.5976 21.8903L75.3532 22.294C75.3155 21.9711 75.1756 21.7154 74.9334 21.527C74.6912 21.3386 74.3629 21.2283 73.9484 21.196C73.5447 21.1691 73.2191 21.2229 72.9715 21.3575C72.7293 21.492 72.6082 21.6858 72.6082 21.9388C72.6082 22.0895 72.6594 22.216 72.7616 22.3182C72.8693 22.4205 73.0873 22.5254 73.4156 22.6331C73.7493 22.7407 74.2552 22.8807 74.9334 23.0529C75.5954 23.2251 76.1256 23.427 76.5239 23.6584C76.9275 23.8845 77.2209 24.159 77.4039 24.4819C77.5869 24.7995 77.6784 25.1843 77.6784 25.6364C77.6784 26.5299 77.3554 27.2323 76.7096 27.7436C76.0637 28.2549 75.1702 28.5106 74.0292 28.5106Z" fill="url(#paint0_linear_1_182)"/>
<path d="M83.594 29.2684V17.3426H88.6293C88.7452 17.3426 88.8998 17.3481 89.0931 17.3591C89.2918 17.3647 89.4685 17.3812 89.6231 17.4088C90.3353 17.5193 90.9178 17.7539 91.3706 18.1128C91.8288 18.4717 92.1656 18.9244 92.381 19.471C92.5963 20.0121 92.7039 20.6167 92.7039 21.2847C92.7039 22.2841 92.4555 23.1398 91.9586 23.8521C91.4617 24.5588 90.6832 24.995 89.6231 25.1606L88.6293 25.2269H85.8466V29.2684H83.594ZM90.3188 29.2684L87.9668 24.4152L90.2857 23.968L92.8696 29.2684H90.3188ZM85.8466 23.1233H88.5299C88.6459 23.1233 88.7728 23.1178 88.9109 23.1067C89.0489 23.0957 89.1759 23.0736 89.2918 23.0405C89.5955 22.9576 89.8302 22.8196 89.9958 22.6264C90.1614 22.4276 90.2746 22.2095 90.3353 21.9721C90.4016 21.7292 90.4347 21.5 90.4347 21.2847C90.4347 21.0694 90.4016 20.843 90.3353 20.6056C90.2746 20.3627 90.1614 20.1446 89.9958 19.9513C89.8302 19.7526 89.5955 19.6118 89.2918 19.529C89.1759 19.4958 89.0489 19.4738 88.9109 19.4627C88.7728 19.4517 88.6459 19.4462 88.5299 19.4462H85.8466V23.1233ZM98.8477 29.5168C97.9312 29.5168 97.1224 29.3208 96.4212 28.9288C95.7255 28.5313 95.1789 27.9875 94.7814 27.2973C94.3894 26.6016 94.1934 25.8066 94.1934 24.9121C94.1934 23.9349 94.3866 23.0846 94.7731 22.3613C95.1596 21.6381 95.6924 21.0777 96.3715 20.6801C97.0506 20.2771 97.8318 20.0756 98.7152 20.0756C99.6538 20.0756 100.452 20.2964 101.109 20.7381C101.766 21.1798 102.252 21.8009 102.566 22.6015C102.881 23.4021 102.991 24.3435 102.898 25.4256H100.67V24.5974C100.67 23.6864 100.523 23.0322 100.231 22.6346C99.9437 22.2316 99.4716 22.0301 98.8146 22.0301C98.0472 22.0301 97.4812 22.2647 97.1168 22.734C96.758 23.1978 96.5785 23.8852 96.5785 24.7962C96.5785 25.6299 96.758 26.2759 97.1168 26.7341C97.4812 27.1869 98.014 27.4132 98.7152 27.4132C99.1569 27.4132 99.5351 27.3166 99.8498 27.1234C100.165 26.9301 100.405 26.6513 100.57 26.2869L102.823 26.9329C102.486 27.75 101.953 28.385 101.225 28.8377C100.501 29.2905 99.7091 29.5168 98.8477 29.5168ZM95.8829 25.4256V23.7527H101.813V25.4256H95.8829ZM108.71 29.5168C107.782 29.5168 106.987 29.3098 106.325 28.8957C105.662 28.4816 105.154 27.9184 104.801 27.2062C104.447 26.494 104.271 25.6906 104.271 24.7962C104.271 23.8907 104.453 23.0819 104.817 22.3696C105.187 21.6574 105.706 21.097 106.374 20.6884C107.042 20.2799 107.832 20.0756 108.743 20.0756C109.797 20.0756 110.681 20.3434 111.393 20.8789C112.111 21.4089 112.569 22.135 112.768 23.057L110.515 23.6533C110.383 23.1895 110.151 22.8279 109.819 22.5684C109.494 22.3089 109.124 22.1792 108.71 22.1792C108.235 22.1792 107.846 22.2951 107.542 22.527C107.238 22.7534 107.015 23.0653 106.871 23.4628C106.728 23.8548 106.656 24.2993 106.656 24.7962C106.656 25.5747 106.827 26.2069 107.169 26.6927C107.517 27.1731 108.031 27.4132 108.71 27.4132C109.218 27.4132 109.604 27.2973 109.869 27.0654C110.134 26.8335 110.333 26.5023 110.465 26.0716L112.768 26.5519C112.514 27.5016 112.033 28.2331 111.327 28.7466C110.62 29.2601 109.748 29.5168 108.71 29.5168ZM118.207 29.5168C117.307 29.5168 116.517 29.3153 115.838 28.9123C115.159 28.5092 114.629 27.9543 114.248 27.2476C113.872 26.5354 113.685 25.7182 113.685 24.7962C113.685 23.8631 113.878 23.0432 114.264 22.3365C114.651 21.6243 115.184 21.0694 115.863 20.6719C116.542 20.2743 117.323 20.0756 118.207 20.0756C119.107 20.0756 119.896 20.2771 120.575 20.6801C121.26 21.0832 121.793 21.6408 122.174 22.3531C122.555 23.0598 122.745 23.8742 122.745 24.7962C122.745 25.7238 122.552 26.5437 122.165 27.2559C121.784 27.9626 121.252 28.5175 120.567 28.9205C119.888 29.3181 119.101 29.5168 118.207 29.5168ZM118.207 27.4132C118.93 27.4132 119.468 27.1703 119.822 26.6844C120.18 26.1931 120.36 25.5636 120.36 24.7962C120.36 24.0011 120.178 23.3662 119.813 22.8914C119.454 22.4166 118.919 22.1792 118.207 22.1792C117.715 22.1792 117.312 22.2896 116.997 22.5104C116.683 22.7313 116.448 23.0377 116.293 23.4297C116.144 23.8217 116.07 24.2772 116.07 24.7962C116.07 25.5968 116.249 26.2345 116.608 26.7093C116.973 27.1786 117.505 27.4132 118.207 27.4132ZM124.566 29.2684V20.324H126.554V22.5104L126.339 22.2288C126.454 21.9197 126.609 21.6381 126.802 21.3841C126.996 21.1301 127.233 20.9203 127.515 20.7547C127.73 20.6222 127.965 20.52 128.219 20.4483C128.472 20.371 128.735 20.324 129.005 20.3075C129.276 20.2854 129.546 20.2909 129.817 20.324V22.4276C129.568 22.3503 129.279 22.3255 128.947 22.3531C128.622 22.3752 128.326 22.4497 128.061 22.5767C127.796 22.6981 127.573 22.861 127.39 23.0653C127.208 23.2641 127.07 23.5015 126.976 23.7775C126.882 24.0481 126.835 24.3545 126.835 24.6968V29.2684H124.566ZM134.858 29.5168C134.035 29.5168 133.315 29.3098 132.696 28.8957C132.078 28.4816 131.595 27.9184 131.247 27.2062C130.905 26.494 130.734 25.6906 130.734 24.7962C130.734 23.8852 130.907 23.0763 131.255 22.3696C131.609 21.6574 132.103 21.097 132.738 20.6884C133.373 20.2799 134.118 20.0756 134.974 20.0756C135.824 20.0756 136.539 20.2826 137.119 20.6967C137.699 21.1108 138.138 21.674 138.436 22.3862C138.734 23.0984 138.883 23.9018 138.883 24.7962C138.883 25.6906 138.731 26.494 138.427 27.2062C138.129 27.9184 137.682 28.4816 137.086 28.8957C136.489 29.3098 135.747 29.5168 134.858 29.5168ZM135.222 27.5126C135.725 27.5126 136.125 27.3994 136.423 27.1731C136.727 26.9467 136.945 26.6292 137.077 26.2207C137.21 25.8121 137.276 25.3373 137.276 24.7962C137.276 24.2551 137.21 23.7803 137.077 23.3717C136.945 22.9632 136.732 22.6457 136.44 22.4193C136.153 22.193 135.774 22.0798 135.305 22.0798C134.803 22.0798 134.389 22.204 134.063 22.4524C133.743 22.6954 133.505 23.0239 133.351 23.438C133.196 23.8466 133.119 24.2993 133.119 24.7962C133.119 25.2986 133.193 25.7569 133.342 26.171C133.491 26.5795 133.721 26.9053 134.03 27.1482C134.339 27.3912 134.736 27.5126 135.222 27.5126ZM137.276 29.2684V23.1398H136.995V17.3426H139.264V29.2684H137.276ZM145.74 29.5168C144.824 29.5168 144.015 29.3208 143.314 28.9288C142.618 28.5313 142.071 27.9875 141.674 27.2973C141.282 26.6016 141.086 25.8066 141.086 24.9121C141.086 23.9349 141.279 23.0846 141.666 22.3613C142.052 21.6381 142.585 21.0777 143.264 20.6801C143.943 20.2771 144.724 20.0756 145.608 20.0756C146.546 20.0756 147.344 20.2964 148.001 20.7381C148.658 21.1798 149.144 21.8009 149.459 22.6015C149.773 23.4021 149.884 24.3435 149.79 25.4256H147.562V24.5974C147.562 23.6864 147.416 23.0322 147.123 22.6346C146.836 22.2316 146.364 22.0301 145.707 22.0301C144.94 22.0301 144.374 22.2647 144.009 22.734C143.65 23.1978 143.471 23.8852 143.471 24.7962C143.471 25.6299 143.65 26.2759 144.009 26.7341C144.374 27.1869 144.907 27.4132 145.608 27.4132C146.049 27.4132 146.428 27.3166 146.742 27.1234C147.057 26.9301 147.297 26.6513 147.463 26.2869L149.715 26.9329C149.379 27.75 148.846 28.385 148.117 28.8377C147.394 29.2905 146.602 29.5168 145.74 29.5168ZM142.775 25.4256V23.7527H148.705V25.4256H142.775ZM151.66 29.2684V20.324H153.648V22.5104L153.432 22.2288C153.548 21.9197 153.703 21.6381 153.896 21.3841C154.089 21.1301 154.327 20.9203 154.608 20.7547C154.824 20.6222 155.058 20.52 155.312 20.4483C155.566 20.371 155.829 20.324 156.099 20.3075C156.37 20.2854 156.64 20.2909 156.911 20.324V22.4276C156.662 22.3503 156.372 22.3255 156.041 22.3531C155.715 22.3752 155.42 22.4497 155.155 22.5767C154.89 22.6981 154.666 22.861 154.484 23.0653C154.302 23.2641 154.164 23.5015 154.07 23.7775C153.976 24.0481 153.929 24.3545 153.929 24.6968V29.2684H151.66Z" fill="url(#paint1_linear_1_182)"/>
<defs>
<linearGradient id="paint0_linear_1_182" x1="0" y1="23.6166" x2="82.4345" y2="23.6166" gradientUnits="userSpaceOnUse">
<stop offset="0.400539" stop-color="#1271CA"/>
<stop offset="0.993402" stop-color="#5D21DD"/>
</linearGradient>
<linearGradient id="paint1_linear_1_182" x1="82.4345" y1="22.5502" x2="157.799" y2="22.5502" gradientUnits="userSpaceOnUse">
<stop stop-color="#1271CA"/>
<stop offset="0.56" stop-color="#152C42"/>
<stop offset="0.83" stop-color="#282828"/>
</linearGradient>
</defs>
</svg>
