<svg width="313" height="100" viewBox="0 0 313 100" fill="none" xmlns="http://www.w3.org/2000/svg">
<path d="M4.43512 47V1.38161H12.1649L27.2443 31.6672L42.3237 1.38161H50.0535V47H42.0069V19.7557L28.7649 47H25.7237L12.4817 19.7557V47H4.43512ZM74.8491 47.9504C71.3432 47.9504 68.2492 47.2006 65.567 45.7011C62.906 44.1805 60.8151 42.1002 59.2945 39.4603C57.795 36.7992 57.0453 33.758 57.0453 30.3366C57.0453 26.5984 57.7844 23.346 59.2628 20.5793C60.7412 17.8127 62.7792 15.669 65.3769 14.1484C67.9747 12.6067 70.9631 11.8358 74.3422 11.8358C77.9326 11.8358 80.9844 12.6806 83.4976 14.3702C86.0108 16.0597 87.8693 18.4357 89.0732 21.4981C90.277 24.5604 90.6994 28.1613 90.3403 32.3007H81.8186V29.1328C81.8186 25.6481 81.2589 23.1454 80.1396 21.6248C79.0413 20.083 77.2356 19.3122 74.7224 19.3122C71.7868 19.3122 69.622 20.2098 68.2281 22.0049C66.8553 23.779 66.1689 26.4084 66.1689 29.8931C66.1689 33.0822 66.8553 35.5532 68.2281 37.3061C69.622 39.0379 71.66 39.9038 74.3422 39.9038C76.0318 39.9038 77.4785 39.5342 78.6823 38.795C79.8861 38.0558 80.8048 36.9893 81.4384 35.5954L90.0552 38.0664C88.7669 41.1921 86.7289 43.6209 83.9411 45.3527C81.1744 47.0845 78.1438 47.9504 74.8491 47.9504ZM63.5079 32.3007V25.9015H86.1903V32.3007H63.5079ZM137.749 47V26.7885C137.749 24.5287 137.21 22.7758 136.133 21.5297C135.077 20.2626 133.609 19.629 131.73 19.629C130.526 19.629 129.48 19.9141 128.593 20.4843C127.706 21.0334 127.009 21.8148 126.502 22.8286C126.017 23.8212 125.774 24.9722 125.774 26.2816L122.162 23.874C122.162 21.5297 122.711 19.46 123.81 17.6648C124.929 15.8697 126.418 14.4758 128.276 13.4832C130.156 12.4694 132.236 11.9625 134.517 11.9625C138.424 11.9625 141.371 13.1241 143.356 15.4473C145.362 17.7493 146.365 20.7694 146.365 24.5076V47H137.749ZM96.502 47V12.7862H104.105V24.1274H105.182V47H96.502ZM117.157 47V26.7885C117.157 24.5287 116.618 22.7758 115.541 21.5297C114.485 20.2626 113.018 19.629 111.138 19.629C109.343 19.629 107.896 20.252 106.798 21.4981C105.721 22.723 105.182 24.3175 105.182 26.2816L101.571 23.7473C101.571 21.5086 102.13 19.5022 103.25 17.7282C104.369 15.9542 105.869 14.5497 107.748 13.5148C109.649 12.48 111.771 11.9625 114.116 11.9625C116.798 11.9625 118.994 12.5328 120.705 13.6732C122.437 14.8137 123.715 16.3343 124.538 18.2351C125.362 20.1358 125.774 22.2267 125.774 24.5076V47H117.157ZM169.381 47.9504C165.938 47.9504 162.918 47.1795 160.32 45.6378C157.723 44.0961 155.695 41.9735 154.238 39.2702C152.802 36.5458 152.084 33.4201 152.084 29.8931C152.084 26.3239 152.823 23.1876 154.301 20.4843C155.779 17.7599 157.818 15.6374 160.415 14.1167C163.013 12.5961 166.001 11.8358 169.381 11.8358C172.823 11.8358 175.843 12.6067 178.441 14.1484C181.06 15.6902 183.098 17.8232 184.555 20.5477C186.012 23.251 186.741 26.3661 186.741 29.8931C186.741 33.4412 186.002 36.5775 184.523 39.3019C183.066 42.0052 181.028 44.1277 178.409 45.6695C175.811 47.1901 172.802 47.9504 169.381 47.9504ZM169.381 39.9038C172.147 39.9038 174.206 38.9745 175.558 37.116C176.931 35.2364 177.617 32.8287 177.617 29.8931C177.617 26.8519 176.92 24.4231 175.526 22.6068C174.154 20.7905 172.105 19.8824 169.381 19.8824C167.501 19.8824 165.959 20.3048 164.755 21.1496C163.552 21.9944 162.654 23.1665 162.063 24.666C161.492 26.1655 161.207 27.9079 161.207 29.8931C161.207 32.9554 161.894 35.3948 163.266 37.2111C164.66 39.0062 166.698 39.9038 169.381 39.9038ZM193.707 47V12.7862H201.31V21.1496L200.487 20.0725C200.93 18.8898 201.522 17.8127 202.261 16.8412C203 15.8697 203.908 15.0671 204.985 14.4335C205.809 13.9267 206.706 13.536 207.678 13.2614C208.65 12.9657 209.653 12.7862 210.688 12.7228C211.722 12.6384 212.757 12.6595 213.792 12.7862V20.8328C212.842 20.5371 211.733 20.4421 210.466 20.5477C209.22 20.6321 208.09 20.9173 207.076 21.403C206.062 21.8676 205.207 22.4907 204.51 23.2721C203.813 24.0324 203.285 24.9406 202.926 25.9965C202.567 27.0314 202.388 28.2035 202.388 29.513V47H193.707ZM220.452 8.03429V0.431229H229.069V8.03429H220.452ZM220.452 47V12.7862H229.069V47H220.452ZM254.469 47.9504C250.963 47.9504 247.869 47.2006 245.187 45.7011C242.526 44.1805 240.435 42.1002 238.914 39.4603C237.415 36.7992 236.665 33.758 236.665 30.3366C236.665 26.5984 237.404 23.346 238.883 20.5793C240.361 17.8127 242.399 15.669 244.997 14.1484C247.595 12.6067 250.583 11.8358 253.962 11.8358C257.552 11.8358 260.604 12.6806 263.118 14.3702C265.631 16.0597 267.489 18.4357 268.693 21.4981C269.897 24.5604 270.319 28.1613 269.96 32.3007H261.439V29.1328C261.439 25.6481 260.879 23.1454 259.759 21.6248C258.661 20.083 256.856 19.3122 254.342 19.3122C251.407 19.3122 249.242 20.2098 247.848 22.0049C246.475 23.779 245.789 26.4084 245.789 29.8931C245.789 33.0822 246.475 35.5532 247.848 37.3061C249.242 39.0379 251.28 39.9038 253.962 39.9038C255.652 39.9038 257.098 39.5342 258.302 38.795C259.506 38.0558 260.425 36.9893 261.058 35.5954L269.675 38.0664C268.387 41.1921 266.349 43.6209 263.561 45.3527C260.794 47.0845 257.764 47.9504 254.469 47.9504ZM243.128 32.3007V25.9015H265.81V32.3007H243.128ZM290.482 47.9504C286.174 47.9504 282.689 46.9789 280.028 45.0359C277.388 43.0717 275.783 40.3051 275.213 36.7359L284.019 35.4053C284.379 37.0104 285.171 38.267 286.395 39.1752C287.642 40.0833 289.215 40.5374 291.116 40.5374C292.679 40.5374 293.882 40.2417 294.727 39.6504C295.572 39.0379 295.994 38.1931 295.994 37.116C295.994 36.4402 295.825 35.9016 295.487 35.5004C295.15 35.078 294.389 34.6661 293.207 34.2649C292.045 33.8636 290.229 33.3356 287.758 32.6809C284.97 31.9628 282.742 31.1603 281.073 30.2733C279.405 29.3862 278.201 28.3303 277.462 27.1053C276.723 25.8593 276.353 24.3598 276.353 22.6068C276.353 20.4104 276.913 18.5096 278.032 16.9045C279.151 15.2783 280.725 14.0323 282.752 13.1664C284.801 12.2793 287.209 11.8358 289.975 11.8358C292.657 11.8358 295.033 12.2477 297.103 13.0713C299.173 13.895 300.841 15.0671 302.108 16.5877C303.397 18.1084 304.189 19.9035 304.484 21.9732L295.678 23.5572C295.53 22.29 294.981 21.2869 294.03 20.5477C293.08 19.8085 291.792 19.3755 290.165 19.2488C288.581 19.1432 287.304 19.3544 286.332 19.8824C285.382 20.4104 284.907 21.1707 284.907 22.1633C284.907 22.7547 285.107 23.251 285.508 23.6523C285.931 24.0535 286.786 24.4654 288.074 24.8878C289.384 25.3101 291.369 25.8593 294.03 26.5351C296.628 27.2109 298.708 28.0029 300.271 28.911C301.855 29.7981 303.006 30.8752 303.724 32.1423C304.442 33.3884 304.801 34.8985 304.801 36.6725C304.801 40.1784 303.534 42.9345 301 44.9408C298.465 46.9472 294.959 47.9504 290.482 47.9504Z" fill="url(#paint0_linear_1_179)"/>
<path d="M67.8 95V66.2H79.96C80.24 66.2 80.6133 66.2133 81.08 66.24C81.56 66.2533 81.9867 66.2933 82.36 66.36C84.08 66.6267 85.4867 67.1933 86.58 68.06C87.6867 68.9267 88.5 70.02 89.02 71.34C89.54 72.6467 89.8 74.1067 89.8 75.72C89.8 78.1333 89.2 80.2 88 81.92C86.8 83.6267 84.92 84.68 82.36 85.08L79.96 85.24H73.24V95H67.8ZM84.04 95L78.36 83.28L83.96 82.2L90.2 95H84.04ZM73.24 80.16H79.72C80 80.16 80.3067 80.1467 80.64 80.12C80.9733 80.0933 81.28 80.04 81.56 79.96C82.2933 79.76 82.86 79.4267 83.26 78.96C83.66 78.48 83.9333 77.9533 84.08 77.38C84.24 76.7933 84.32 76.24 84.32 75.72C84.32 75.2 84.24 74.6533 84.08 74.08C83.9333 73.4933 83.66 72.9667 83.26 72.5C82.86 72.02 82.2933 71.68 81.56 71.48C81.28 71.4 80.9733 71.3467 80.64 71.32C80.3067 71.2933 80 71.28 79.72 71.28H73.24V80.16ZM104.637 95.6C102.424 95.6 100.47 95.1267 98.7769 94.18C97.0969 93.22 95.7769 91.9067 94.8169 90.24C93.8702 88.56 93.3969 86.64 93.3969 84.48C93.3969 82.12 93.8635 80.0667 94.7969 78.32C95.7302 76.5733 97.0169 75.22 98.6569 74.26C100.297 73.2867 102.184 72.8 104.317 72.8C106.584 72.8 108.51 73.3333 110.097 74.4C111.684 75.4667 112.857 76.9667 113.617 78.9C114.377 80.8333 114.644 83.1067 114.417 85.72H109.037V83.72C109.037 81.52 108.684 79.94 107.977 78.98C107.284 78.0067 106.144 77.52 104.557 77.52C102.704 77.52 101.337 78.0867 100.457 79.22C99.5902 80.34 99.1569 82 99.1569 84.2C99.1569 86.2133 99.5902 87.7733 100.457 88.88C101.337 89.9733 102.624 90.52 104.317 90.52C105.384 90.52 106.297 90.2867 107.057 89.82C107.817 89.3533 108.397 88.68 108.797 87.8L114.237 89.36C113.424 91.3333 112.137 92.8667 110.377 93.96C108.63 95.0533 106.717 95.6 104.637 95.6ZM97.4769 85.72V81.68H111.797V85.72H97.4769ZM128.453 95.6C126.213 95.6 124.293 95.1 122.693 94.1C121.093 93.1 119.866 91.74 119.013 90.02C118.159 88.3 117.733 86.36 117.733 84.2C117.733 82.0133 118.173 80.06 119.053 78.34C119.946 76.62 121.199 75.2667 122.813 74.28C124.426 73.2933 126.333 72.8 128.533 72.8C131.079 72.8 133.213 73.4467 134.933 74.74C136.666 76.02 137.773 77.7733 138.253 80L132.813 81.44C132.493 80.32 131.933 79.4467 131.133 78.82C130.346 78.1933 129.453 77.88 128.453 77.88C127.306 77.88 126.366 78.16 125.633 78.72C124.899 79.2667 124.359 80.02 124.013 80.98C123.666 81.9267 123.493 83 123.493 84.2C123.493 86.08 123.906 87.6067 124.733 88.78C125.573 89.94 126.813 90.52 128.453 90.52C129.679 90.52 130.613 90.24 131.253 89.68C131.893 89.12 132.373 88.32 132.693 87.28L138.253 88.44C137.639 90.7333 136.479 92.5 134.773 93.74C133.066 94.98 130.959 95.6 128.453 95.6ZM151.387 95.6C149.214 95.6 147.307 95.1133 145.667 94.14C144.027 93.1667 142.747 91.8267 141.827 90.12C140.921 88.4 140.467 86.4267 140.467 84.2C140.467 81.9467 140.934 79.9667 141.867 78.26C142.801 76.54 144.087 75.2 145.727 74.24C147.367 73.28 149.254 72.8 151.387 72.8C153.561 72.8 155.467 73.2867 157.107 74.26C158.761 75.2333 160.047 76.58 160.967 78.3C161.887 80.0067 162.347 81.9733 162.347 84.2C162.347 86.44 161.881 88.42 160.947 90.14C160.027 91.8467 158.741 93.1867 157.087 94.16C155.447 95.12 153.547 95.6 151.387 95.6ZM151.387 90.52C153.134 90.52 154.434 89.9333 155.287 88.76C156.154 87.5733 156.587 86.0533 156.587 84.2C156.587 82.28 156.147 80.7467 155.267 79.6C154.401 78.4533 153.107 77.88 151.387 77.88C150.201 77.88 149.227 78.1467 148.467 78.68C147.707 79.2133 147.141 79.9533 146.767 80.9C146.407 81.8467 146.227 82.9467 146.227 84.2C146.227 86.1333 146.661 87.6733 147.527 88.82C148.407 89.9533 149.694 90.52 151.387 90.52ZM166.745 95V73.4H171.545V78.68L171.025 78C171.305 77.2533 171.679 76.5733 172.145 75.96C172.612 75.3467 173.185 74.84 173.865 74.44C174.385 74.12 174.952 73.8733 175.565 73.7C176.179 73.5133 176.812 73.4 177.465 73.36C178.119 73.3067 178.772 73.32 179.425 73.4V78.48C178.825 78.2933 178.125 78.2333 177.325 78.3C176.539 78.3533 175.825 78.5333 175.185 78.84C174.545 79.1333 174.005 79.5267 173.565 80.02C173.125 80.5 172.792 81.0733 172.565 81.74C172.339 82.3933 172.225 83.1333 172.225 83.96V95H166.745ZM191.599 95.6C189.612 95.6 187.872 95.1 186.379 94.1C184.886 93.1 183.719 91.74 182.879 90.02C182.052 88.3 181.639 86.36 181.639 84.2C181.639 82 182.059 80.0467 182.899 78.34C183.752 76.62 184.946 75.2667 186.479 74.28C188.012 73.2933 189.812 72.8 191.879 72.8C193.932 72.8 195.659 73.3 197.059 74.3C198.459 75.3 199.519 76.66 200.239 78.38C200.959 80.1 201.319 82.04 201.319 84.2C201.319 86.36 200.952 88.3 200.219 90.02C199.499 91.74 198.419 93.1 196.979 94.1C195.539 95.1 193.746 95.6 191.599 95.6ZM192.479 90.76C193.692 90.76 194.659 90.4867 195.379 89.94C196.112 89.3933 196.639 88.6267 196.959 87.64C197.279 86.6533 197.439 85.5067 197.439 84.2C197.439 82.8933 197.279 81.7467 196.959 80.76C196.639 79.7733 196.126 79.0067 195.419 78.46C194.726 77.9133 193.812 77.64 192.679 77.64C191.466 77.64 190.466 77.94 189.679 78.54C188.906 79.1267 188.332 79.92 187.959 80.92C187.586 81.9067 187.399 83 187.399 84.2C187.399 85.4133 187.579 86.52 187.939 87.52C188.299 88.5067 188.852 89.2933 189.599 89.88C190.346 90.4667 191.306 90.76 192.479 90.76ZM197.439 95V80.2H196.759V66.2H202.239V95H197.439ZM217.879 95.6C215.666 95.6 213.712 95.1267 212.019 94.18C210.339 93.22 209.019 91.9067 208.059 90.24C207.112 88.56 206.639 86.64 206.639 84.48C206.639 82.12 207.106 80.0667 208.039 78.32C208.972 76.5733 210.259 75.22 211.899 74.26C213.539 73.2867 215.426 72.8 217.559 72.8C219.826 72.8 221.752 73.3333 223.339 74.4C224.926 75.4667 226.099 76.9667 226.859 78.9C227.619 80.8333 227.886 83.1067 227.659 85.72H222.279V83.72C222.279 81.52 221.926 79.94 221.219 78.98C220.526 78.0067 219.386 77.52 217.799 77.52C215.946 77.52 214.579 78.0867 213.699 79.22C212.832 80.34 212.399 82 212.399 84.2C212.399 86.2133 212.832 87.7733 213.699 88.88C214.579 89.9733 215.866 90.52 217.559 90.52C218.626 90.52 219.539 90.2867 220.299 89.82C221.059 89.3533 221.639 88.68 222.039 87.8L227.479 89.36C226.666 91.3333 225.379 92.8667 223.619 93.96C221.872 95.0533 219.959 95.6 217.879 95.6ZM210.719 85.72V81.68H225.039V85.72H210.719ZM232.175 95V73.4H236.975V78.68L236.455 78C236.735 77.2533 237.108 76.5733 237.575 75.96C238.042 75.3467 238.615 74.84 239.295 74.44C239.815 74.12 240.382 73.8733 240.995 73.7C241.608 73.5133 242.242 73.4 242.895 73.36C243.548 73.3067 244.202 73.32 244.855 73.4V78.48C244.255 78.2933 243.555 78.2333 242.755 78.3C241.968 78.3533 241.255 78.5333 240.615 78.84C239.975 79.1333 239.435 79.5267 238.995 80.02C238.555 80.5 238.222 81.0733 237.995 81.74C237.768 82.3933 237.655 83.1333 237.655 83.96V95H232.175Z" fill="url(#paint1_linear_1_179)"/>
<defs>
<linearGradient id="paint0_linear_1_179" x1="0" y1="31.5" x2="313" y2="31.5" gradientUnits="userSpaceOnUse">
<stop offset="0.400539" stop-color="#1271CA"/>
<stop offset="0.993402" stop-color="#5D21DD"/>
</linearGradient>
<linearGradient id="paint1_linear_1_179" x1="65" y1="80" x2="247" y2="80" gradientUnits="userSpaceOnUse">
<stop stop-color="#1271CA"/>
<stop offset="0.56" stop-color="#152C42"/>
<stop offset="0.83" stop-color="#282828"/>
</linearGradient>
</defs>
</svg>
